<?xml version="1.0" encoding="UTF-8"?>
<svg xmlns="http://www.w3.org/2000/svg" xmlns:xlink="http://www.w3.org/1999/xlink" width="86.29pt" height="92pt" viewBox="0 0 86.29 92" version="1.1">
<defs>
<clipPath id="clip1">
  <path d="M 0 0 L 86.289063 0 L 86.289063 92 L 0 92 Z M 0 0 "/>
</clipPath>
</defs>
<g id="surface1">
<g clip-path="url(#clip1)" clip-rule="nonzero">
<path style=" stroke:none;fill-rule:nonzero;fill:rgb(87.841797%,77.645874%,56.077576%);fill-opacity:1;" d="M 64.539063 11.382813 L 64.539063 6.675781 C 64.539063 6.675781 56.773438 0 43.152344 0 C 29.527344 0 22.078125 5.84375 22.078125 5.84375 L 22.078125 11.199219 C 8.90625 18.582031 0 32.675781 0 48.855469 C 0 72.683594 19.316406 92 43.148438 92 C 66.976563 92 86.289063 72.683594 86.289063 48.855469 C 86.289063 32.8125 77.53125 18.816406 64.539063 11.382813 "/>
</g>
<path style=" stroke:none;fill-rule:nonzero;fill:rgb(69.410706%,3.137207%,21.176147%);fill-opacity:1;" d="M 63.273438 13.726563 L 63.273438 15.949219 C 74.335938 22.738281 81.730469 34.949219 81.730469 48.855469 C 81.730469 70.132813 64.421875 87.441406 43.148438 87.441406 C 21.871094 87.441406 4.5625 70.132813 4.5625 48.855469 C 4.5625 34.8125 12.105469 22.503906 23.351563 15.75 L 23.351563 13.535156 C 11.003906 20.484375 2.636719 33.707031 2.636719 48.855469 C 2.636719 71.191406 20.808594 89.363281 43.148438 89.363281 C 65.480469 89.363281 83.648438 71.191406 83.648438 48.855469 C 83.648438 33.84375 75.4375 20.722656 63.273438 13.726563 "/>
<path style=" stroke:none;fill-rule:nonzero;fill:rgb(69.410706%,3.137207%,21.176147%);fill-opacity:1;" d="M 23.351563 22.015625 L 23.351563 20.367188 C 14.34375 26.644531 8.429688 37.070313 8.429688 48.855469 C 8.429688 51.359375 8.703125 53.859375 9.230469 56.285156 C 9.3125 56.652344 9.667969 56.878906 10.03125 56.800781 C 10.394531 56.722656 10.621094 56.363281 10.542969 55.996094 C 10.035156 53.667969 9.777344 51.265625 9.777344 48.855469 C 9.777344 37.863281 15.121094 28.101563 23.351563 22.015625 "/>
<path style=" stroke:none;fill-rule:nonzero;fill:rgb(69.410706%,3.137207%,21.176147%);fill-opacity:1;" d="M 63.273438 20.597656 L 63.273438 22.261719 C 71.3125 28.359375 76.515625 38.011719 76.515625 48.855469 C 76.515625 51.117188 76.285156 53.382813 75.835938 55.578125 C 75.761719 55.945313 75.996094 56.300781 76.359375 56.378906 C 76.726563 56.449219 77.082031 56.214844 77.15625 55.851563 C 77.621094 53.566406 77.859375 51.207031 77.859375 48.855469 C 77.859375 37.214844 72.09375 26.898438 63.273438 20.597656 "/>
<path style=" stroke:none;fill-rule:nonzero;fill:rgb(69.410706%,3.137207%,21.176147%);fill-opacity:1;" d="M 63.273438 27.199219 L 63.273438 29.90625 C 67.941406 34.859375 70.808594 41.527344 70.808594 48.855469 C 70.808594 64.113281 58.402344 76.523438 43.148438 76.523438 C 27.890625 76.523438 15.480469 64.113281 15.480469 48.855469 C 15.480469 41.355469 18.484375 34.546875 23.351563 29.558594 L 23.351563 26.890625 C 17.339844 32.308594 13.558594 40.148438 13.558594 48.855469 C 13.558594 65.167969 26.832031 78.445313 43.148438 78.445313 C 59.460938 78.445313 72.734375 65.167969 72.734375 48.855469 C 72.734375 40.308594 69.085938 32.601563 63.273438 27.199219 "/>
<path style=" stroke:none;fill-rule:nonzero;fill:rgb(69.410706%,3.137207%,21.176147%);fill-opacity:1;" d="M 11.914063 60.824219 L 14.632813 61.839844 L 15.171875 63.132813 L 12.394531 62.003906 L 10.433594 65.253906 L 9.890625 63.964844 L 11.375 61.605469 L 10.695313 61.339844 L 9.074219 62.023438 L 8.65625 61.023438 L 13.445313 59.011719 L 13.863281 60.007813 L 11.914063 60.824219 "/>
<path style=" stroke:none;fill-rule:nonzero;fill:rgb(69.410706%,3.137207%,21.176147%);fill-opacity:1;" d="M 14.125 66.074219 L 14.660156 66.925781 C 15.042969 67.53125 15.511719 67.351563 15.78125 67.179688 C 16.207031 66.910156 16.242188 66.5625 15.882813 65.988281 L 15.417969 65.257813 L 14.125 66.074219 M 11.78125 67.550781 L 11.207031 66.636719 L 15.601563 63.867188 L 16.871094 65.875 C 17.402344 66.726563 17.183594 67.574219 16.316406 68.117188 C 15.921875 68.367188 14.773438 68.785156 14.03125 67.601563 L 13.367188 66.550781 L 11.78125 67.550781 "/>
<path style=" stroke:none;fill-rule:nonzero;fill:rgb(69.410706%,3.137207%,21.176147%);fill-opacity:1;" d="M 16.648438 70.996094 L 17.558594 72.046875 L 18.644531 70.160156 L 18.632813 70.152344 L 16.648438 70.996094 M 19.941406 69.867188 L 17.21875 74.65625 L 16.453125 73.769531 L 17.039063 72.8125 L 15.78125 71.371094 L 14.734375 71.800781 L 13.988281 70.941406 L 19.117188 68.925781 L 19.941406 69.867188 "/>
<path style=" stroke:none;fill-rule:nonzero;fill:rgb(69.410706%,3.137207%,21.176147%);fill-opacity:1;" d="M 23.15625 75.15625 C 23.289063 74.855469 23.546875 74.277344 22.859375 73.707031 C 22.453125 73.375 21.609375 73.164063 20.679688 74.292969 C 20.085938 75.015625 19.839844 75.929688 20.546875 76.511719 C 21.011719 76.898438 21.570313 76.882813 22.070313 76.472656 L 22.90625 77.160156 C 22.019531 77.894531 20.949219 78.035156 19.949219 77.207031 C 18.882813 76.328125 18.714844 74.976563 19.851563 73.597656 C 21.011719 72.195313 22.402344 72.144531 23.433594 72.996094 C 24.628906 73.984375 24.4375 75.210938 23.992188 75.839844 L 23.15625 75.15625 "/>
<path style=" stroke:none;fill-rule:nonzero;fill:rgb(69.410706%,3.137207%,21.176147%);fill-opacity:1;" d="M 25.820313 77.285156 L 27.574219 78.289063 L 28.554688 76.582031 L 29.488281 77.121094 L 26.910156 81.628906 L 25.972656 81.09375 L 27.132813 79.066406 L 25.371094 78.0625 L 24.214844 80.085938 L 23.277344 79.550781 L 25.855469 75.039063 L 26.792969 75.578125 L 25.820313 77.285156 "/>
<path style=" stroke:none;fill-rule:nonzero;fill:rgb(69.410706%,3.137207%,21.176147%);fill-opacity:1;" d="M 30.796875 81.136719 L 32.101563 81.609375 L 32.136719 79.4375 L 32.125 79.433594 L 30.796875 81.136719 M 33.128906 78.546875 L 33.070313 84.050781 L 31.972656 83.65625 L 32.019531 82.53125 L 30.222656 81.878906 L 29.515625 82.761719 L 28.441406 82.375 L 31.949219 78.121094 L 33.128906 78.546875 "/>
<path style=" stroke:none;fill-rule:nonzero;fill:rgb(69.410706%,3.137207%,21.176147%);fill-opacity:1;" d="M 38.460938 80.765625 L 37.144531 80.53125 C 36.601563 80.433594 36.332031 80.761719 36.28125 81.03125 C 36.203125 81.457031 36.429688 81.796875 36.984375 81.894531 L 38.21875 82.117188 L 38.460938 80.765625 M 38.765625 85.191406 L 37.699219 85 L 38.058594 83 L 37.269531 82.855469 L 35.726563 84.644531 L 34.480469 84.417969 L 36.105469 82.542969 C 35.5625 82.25 35.066406 81.6875 35.210938 80.878906 C 35.359375 80.070313 36.113281 79.433594 37.097656 79.609375 L 39.683594 80.078125 L 38.765625 85.191406 "/>
<path style=" stroke:none;fill-rule:nonzero;fill:rgb(69.410706%,3.137207%,21.176147%);fill-opacity:1;" d="M 47.660156 79.980469 L 48.03125 85.15625 L 46.957031 85.238281 L 46.648438 80.949219 L 44.628906 81.09375 L 44.9375 85.382813 L 43.859375 85.457031 L 43.484375 80.277344 L 47.660156 79.980469 "/>
<path style=" stroke:none;fill-rule:nonzero;fill:rgb(69.410706%,3.137207%,21.176147%);fill-opacity:1;" d="M 52.84375 78.800781 L 54.089844 83.84375 L 53.035156 84.105469 L 52.007813 79.925781 L 50.585938 80.28125 L 51.113281 82.4375 C 51.4375 83.738281 51.324219 84.664063 50.332031 84.910156 C 50.097656 84.96875 49.871094 85.003906 49.675781 84.988281 L 49.476563 84.183594 C 49.542969 84.191406 49.660156 84.183594 49.796875 84.148438 C 50.269531 84.03125 50.308594 83.671875 50.039063 82.582031 L 49.324219 79.667969 L 52.84375 78.800781 "/>
<path style=" stroke:none;fill-rule:nonzero;fill:rgb(69.410706%,3.137207%,21.176147%);fill-opacity:1;" d="M 57.824219 81.550781 C 58.359375 81.3125 58.96875 80.648438 58.375 79.316406 C 57.785156 77.988281 56.886719 77.992188 56.351563 78.230469 C 55.8125 78.46875 55.207031 79.136719 55.800781 80.464844 C 56.390625 81.789063 57.289063 81.789063 57.824219 81.550781 M 55.976563 77.390625 C 56.605469 77.113281 58.375 76.65625 59.363281 78.882813 C 60.351563 81.101563 58.828125 82.109375 58.195313 82.386719 C 57.570313 82.667969 55.800781 83.125 54.816406 80.902344 C 53.824219 78.679688 55.347656 77.667969 55.976563 77.390625 "/>
<path style=" stroke:none;fill-rule:nonzero;fill:rgb(69.410706%,3.137207%,21.176147%);fill-opacity:1;" d="M 62.433594 79.015625 L 63.539063 78.226563 L 61.039063 74.726563 L 61.917969 74.097656 L 64.417969 77.59375 L 65.523438 76.804688 L 63.023438 73.308594 L 63.90625 72.679688 L 66.402344 76.179688 L 66.824219 75.878906 L 67.980469 77.503906 L 67.164063 78.089844 L 66.523438 77.191406 L 62.074219 80.367188 L 59.054688 76.144531 L 59.933594 75.515625 L 62.433594 79.015625 "/>
<path style=" stroke:none;fill-rule:nonzero;fill:rgb(69.410706%,3.137207%,21.176147%);fill-opacity:1;" d="M 68.09375 72.992188 L 69.042969 71.976563 L 67.066406 71.089844 L 67.054688 71.097656 L 68.09375 72.992188 M 66.640625 69.824219 L 71.671875 72.054688 L 70.871094 72.910156 L 69.855469 72.417969 L 68.546875 73.8125 L 69.082031 74.8125 L 68.300781 75.644531 L 65.78125 70.738281 L 66.640625 69.824219 "/>
<path style=" stroke:none;fill-rule:nonzero;fill:rgb(69.410706%,3.137207%,21.176147%);fill-opacity:1;" d="M 73.707031 67.570313 L 70.855469 65.699219 L 70.082031 66.882813 L 70.683594 67.277344 C 71.800781 68.015625 72.265625 68.417969 72.636719 69.195313 L 73.707031 67.570313 M 70.703125 64.304688 L 74.296875 66.664063 L 74.578125 66.238281 L 76.234375 67.332031 L 75.6875 68.175781 L 74.773438 67.574219 L 73.089844 70.128906 L 74.007813 70.730469 L 73.453125 71.570313 L 71.789063 70.480469 L 72.046875 70.09375 C 71.695313 69.285156 71.171875 68.816406 70.066406 68.085938 L 68.773438 67.238281 L 70.703125 64.304688 "/>
<path style=" stroke:none;fill-rule:nonzero;fill:rgb(69.410706%,3.137207%,21.176147%);fill-opacity:1;" d="M 75.714844 63.84375 L 76.207031 62.726563 C 76.410156 62.246094 76.234375 61.84375 75.84375 61.671875 C 75.421875 61.488281 75.078125 61.707031 74.886719 62.152344 L 74.398438 63.273438 L 75.714844 63.84375 M 73.574219 62.914063 L 74.117188 61.675781 C 74.515625 60.757813 75.378906 60.289063 76.324219 60.699219 C 77.265625 61.109375 77.484375 62.027344 77.066406 62.976563 L 76.105469 65.195313 L 71.34375 63.121094 L 71.773438 62.132813 L 73.574219 62.914063 "/>
<path style=" stroke:none;fill-rule:nonzero;fill:rgb(69.410706%,3.137207%,21.176147%);fill-opacity:1;" d="M 50.398438 69.222656 C 50.101563 69.550781 49.660156 69.714844 49.074219 69.714844 C 48.355469 69.714844 47.855469 69.476563 47.570313 69.003906 C 47.425781 68.753906 47.34375 68.425781 47.328125 68.023438 L 48.308594 68.023438 C 48.308594 68.226563 48.34375 68.398438 48.40625 68.53125 C 48.53125 68.78125 48.753906 68.902344 49.078125 68.902344 C 49.277344 68.902344 49.445313 68.832031 49.59375 68.699219 C 49.738281 68.566406 49.816406 68.371094 49.816406 68.117188 C 49.816406 67.78125 49.679688 67.558594 49.40625 67.445313 C 49.253906 67.382813 49.015625 67.351563 48.683594 67.351563 L 48.683594 66.636719 C 48.996094 66.632813 49.214844 66.597656 49.34375 66.539063 C 49.558594 66.441406 49.664063 66.238281 49.664063 65.941406 C 49.664063 65.742188 49.609375 65.585938 49.496094 65.464844 C 49.386719 65.34375 49.230469 65.28125 49.035156 65.28125 C 48.800781 65.28125 48.632813 65.355469 48.523438 65.507813 C 48.414063 65.65625 48.363281 65.859375 48.367188 66.113281 L 47.421875 66.113281 C 47.429688 65.859375 47.476563 65.617188 47.550781 65.394531 C 47.636719 65.195313 47.761719 65.011719 47.933594 64.839844 C 48.066406 64.71875 48.21875 64.628906 48.402344 64.566406 C 48.578125 64.503906 48.800781 64.46875 49.0625 64.46875 C 49.546875 64.46875 49.941406 64.597656 50.234375 64.847656 C 50.53125 65.101563 50.683594 65.4375 50.683594 65.863281 C 50.683594 66.15625 50.59375 66.410156 50.421875 66.621094 C 50.3125 66.746094 50.199219 66.835938 50.082031 66.886719 C 50.171875 66.886719 50.300781 66.960938 50.46875 67.117188 C 50.71875 67.351563 50.847656 67.675781 50.847656 68.085938 C 50.847656 68.519531 50.695313 68.898438 50.398438 69.222656 M 46.378906 68.558594 C 46.082031 69.339844 45.53125 69.734375 44.730469 69.734375 C 44.347656 69.734375 44 69.621094 43.695313 69.398438 C 43.390625 69.171875 43.214844 68.847656 43.171875 68.414063 L 44.167969 68.414063 C 44.191406 68.570313 44.257813 68.691406 44.355469 68.78125 C 44.460938 68.878906 44.601563 68.925781 44.773438 68.925781 C 45.105469 68.925781 45.339844 68.738281 45.472656 68.367188 C 45.546875 68.164063 45.59375 67.867188 45.609375 67.476563 C 45.523438 67.589844 45.421875 67.679688 45.320313 67.738281 C 45.136719 67.851563 44.90625 67.90625 44.628906 67.90625 C 44.222656 67.90625 43.867188 67.765625 43.550781 67.488281 C 43.234375 67.207031 43.078125 66.804688 43.078125 66.277344 C 43.078125 65.730469 43.234375 65.292969 43.550781 64.957031 C 43.867188 64.617188 44.273438 64.449219 44.78125 64.449219 C 45.554688 64.449219 46.082031 64.789063 46.371094 65.476563 C 46.535156 65.863281 46.617188 66.378906 46.617188 67.015625 C 46.617188 67.632813 46.539063 68.144531 46.378906 68.558594 Z M 40.832031 48.746094 L 40.832031 47.40625 L 42.914063 47.40625 L 42.914063 48.746094 Z M 41.824219 69.265625 C 41.507813 69.558594 41.0625 69.714844 40.496094 69.714844 C 39.921875 69.714844 39.492188 69.558594 39.199219 69.265625 C 38.90625 68.960938 38.761719 68.59375 38.761719 68.167969 C 38.761719 67.882813 38.824219 67.621094 38.953125 67.390625 C 39.082031 67.15625 39.273438 66.984375 39.519531 66.867188 C 39.277344 66.703125 39.113281 66.527344 39.042969 66.339844 C 38.96875 66.148438 38.933594 65.96875 38.933594 65.800781 C 38.933594 65.433594 39.074219 65.121094 39.351563 64.863281 C 39.628906 64.601563 40.023438 64.46875 40.53125 64.46875 C 41.039063 64.46875 41.429688 64.601563 41.707031 64.863281 C 41.988281 65.121094 42.125 65.4375 42.125 65.800781 C 42.125 65.96875 42.089844 66.148438 42.019531 66.339844 C 41.945313 66.527344 41.785156 66.691406 41.542969 66.832031 C 41.792969 66.96875 41.980469 67.15625 42.109375 67.390625 C 42.234375 67.621094 42.300781 67.882813 42.300781 68.167969 C 42.300781 68.59375 42.140625 68.960938 41.824219 69.265625 Z M 38.402344 48.746094 L 38.402344 47.40625 L 40.480469 47.40625 L 40.480469 48.746094 Z M 35.945313 48.746094 L 35.945313 47.40625 L 38.042969 47.40625 L 38.042969 48.746094 Z M 37.441406 69.585938 L 36.421875 69.585938 L 36.421875 66.066406 L 35.230469 66.066406 L 35.230469 65.386719 C 35.542969 65.371094 35.765625 65.347656 35.890625 65.324219 C 36.089844 65.277344 36.253906 65.191406 36.375 65.054688 C 36.460938 64.964844 36.527344 64.847656 36.570313 64.695313 C 36.597656 64.605469 36.609375 64.539063 36.609375 64.492188 L 37.441406 64.492188 Z M 43.273438 48.746094 L 43.273438 47.40625 L 45.355469 47.40625 L 45.355469 48.746094 Z M 45.710938 48.746094 L 45.710938 47.40625 L 47.792969 47.40625 L 47.792969 48.746094 Z M 48.148438 48.746094 L 48.148438 47.40625 L 50.253906 47.40625 L 50.253906 48.746094 Z M 65.179688 57.285156 L 62.324219 60.074219 L 61.269531 60.074219 L 61.269531 57.820313 L 58.886719 48.910156 L 58.886719 48.828125 L 59.40625 48.828125 L 59.40625 48.203125 L 58.886719 48.203125 L 58.886719 44.644531 L 59.40625 44.644531 L 59.40625 44.019531 L 58.859375 44.019531 L 57.707031 36.867188 L 57.707031 34.484375 L 60.332031 34.484375 L 59.453125 33.613281 L 60.332031 32.691406 L 57.707031 32.691406 L 57.707031 32.148438 L 57.398438 32.148438 L 57.398438 32.691406 L 57.390625 32.691406 L 57.390625 34.484375 L 57.398438 34.484375 L 57.398438 36.867188 L 56.238281 44.019531 L 55.683594 44.019531 L 55.683594 44.644531 L 56.214844 44.644531 L 56.214844 48.203125 L 55.683594 48.203125 L 55.683594 48.828125 L 56.214844 48.828125 L 56.214844 48.910156 L 54.367188 55.800781 L 51.335938 49.917969 L 51.96875 48.746094 L 50.871094 48.746094 L 50.871094 46.574219 L 50.253906 46.574219 L 50.253906 47.03125 L 35.945313 47.03125 L 35.945313 46.574219 L 35.316406 46.574219 L 35.316406 48.746094 L 34.230469 48.746094 L 34.859375 49.917969 L 31.824219 55.800781 L 29.980469 48.910156 L 29.980469 48.828125 L 30.503906 48.828125 L 30.503906 48.203125 L 29.980469 48.203125 L 29.980469 44.644531 L 30.503906 44.644531 L 30.503906 44.019531 L 29.953125 44.019531 L 28.796875 36.867188 L 28.796875 34.484375 L 31.425781 34.484375 L 30.550781 33.613281 L 31.425781 32.691406 L 28.796875 32.691406 L 28.796875 32.148438 L 28.484375 32.148438 L 28.484375 36.867188 L 27.328125 44.019531 L 26.78125 44.019531 L 26.78125 44.644531 L 27.304688 44.644531 L 27.304688 48.203125 L 26.78125 48.203125 L 26.78125 48.828125 L 27.304688 48.828125 L 27.304688 48.910156 L 24.917969 57.820313 L 24.917969 60.074219 L 23.863281 60.074219 L 21.011719 57.285156 L 19.054688 59.15625 C 23.109375 68.417969 32.355469 74.898438 43.113281 74.898438 C 53.867188 74.898438 63.105469 68.429688 67.15625 59.171875 L 65.179688 57.285156 "/>
<path style=" stroke:none;fill-rule:nonzero;fill:rgb(69.410706%,3.137207%,21.176147%);fill-opacity:1;" d="M 44.828125 65.28125 C 44.652344 65.28125 44.511719 65.328125 44.386719 65.425781 C 44.195313 65.574219 44.097656 65.832031 44.097656 66.191406 C 44.097656 66.488281 44.15625 66.71875 44.28125 66.867188 C 44.40625 67.023438 44.597656 67.097656 44.851563 67.097656 C 44.988281 67.097656 45.121094 67.054688 45.242188 66.976563 C 45.472656 66.832031 45.589844 66.578125 45.589844 66.21875 C 45.589844 65.933594 45.523438 65.703125 45.386719 65.53125 C 45.25 65.363281 45.066406 65.28125 44.828125 65.28125 "/>
<path style=" stroke:none;fill-rule:nonzero;fill:rgb(69.410706%,3.137207%,21.176147%);fill-opacity:1;" d="M 40.53125 66.542969 C 40.734375 66.542969 40.898438 66.484375 41.007813 66.363281 C 41.121094 66.25 41.179688 66.101563 41.179688 65.914063 C 41.179688 65.71875 41.121094 65.558594 41.007813 65.449219 C 40.898438 65.339844 40.734375 65.28125 40.53125 65.28125 C 40.328125 65.28125 40.167969 65.339844 40.054688 65.449219 C 39.941406 65.558594 39.882813 65.71875 39.882813 65.914063 C 39.882813 66.101563 39.941406 66.25 40.054688 66.363281 C 40.167969 66.484375 40.328125 66.542969 40.53125 66.542969 "/>
<path style=" stroke:none;fill-rule:nonzero;fill:rgb(69.410706%,3.137207%,21.176147%);fill-opacity:1;" d="M 40.53125 67.300781 C 40.304688 67.300781 40.121094 67.371094 39.992188 67.507813 C 39.855469 67.644531 39.789063 67.84375 39.789063 68.105469 C 39.789063 68.355469 39.855469 68.554688 39.988281 68.695313 C 40.113281 68.832031 40.296875 68.902344 40.53125 68.902344 C 40.761719 68.902344 40.945313 68.832031 41.074219 68.695313 C 41.203125 68.554688 41.273438 68.355469 41.273438 68.105469 C 41.273438 67.84375 41.203125 67.644531 41.070313 67.507813 C 40.9375 67.371094 40.757813 67.300781 40.53125 67.300781 "/>
<path style=" stroke:none;fill-rule:nonzero;fill:rgb(69.410706%,3.137207%,21.176147%);fill-opacity:1;" d="M 35.484375 8.113281 L 35.746094 8.066406 L 35.746094 4.191406 L 35.367188 4.257813 C 32.082031 4.839844 28.855469 5.78125 25.777344 7.066406 L 25.582031 7.152344 L 25.582031 27.824219 L 25.78125 27.90625 C 26.824219 28.34375 27.898438 28.742188 28.976563 29.097656 L 29.398438 29.238281 C 29.398438 29.238281 29.398438 10.214844 29.398438 9.765625 C 31.375 9.066406 33.421875 8.507813 35.484375 8.113281 "/>
<path style=" stroke:none;fill-rule:nonzero;fill:rgb(69.410706%,3.137207%,21.176147%);fill-opacity:1;" d="M 38.566406 3.808594 L 38.28125 3.839844 C 38.28125 3.839844 38.28125 18.367188 38.28125 19.042969 C 36.855469 18.878906 35.746094 17.683594 35.746094 16.21875 L 35.746094 10.644531 L 35.359375 10.722656 C 34.289063 10.945313 33.210938 11.214844 32.160156 11.53125 L 31.929688 11.59375 L 31.929688 16.21875 C 31.929688 19.789063 34.753906 22.703125 38.28125 22.871094 C 38.28125 23.238281 38.28125 23.933594 38.28125 23.933594 C 38.28125 25.507813 37 26.785156 35.425781 26.785156 C 35.222656 26.785156 35.019531 26.769531 34.824219 26.722656 C 34.808594 26.722656 33.285156 26.402344 32.339844 26.132813 L 31.929688 26.015625 L 31.929688 29.960938 L 32.160156 30.027344 C 32.574219 30.148438 33.71875 30.390625 34.058594 30.460938 C 34.496094 30.554688 34.957031 30.601563 35.425781 30.601563 C 39.101563 30.601563 42.09375 27.609375 42.09375 23.933594 L 42.09375 3.574219 L 41.765625 3.589844 C 40.695313 3.625 39.621094 3.699219 38.566406 3.808594 "/>
<path style=" stroke:none;fill-rule:nonzero;fill:rgb(69.410706%,3.137207%,21.176147%);fill-opacity:1;" d="M 60.980469 7.15625 C 59.972656 6.570313 58.820313 6.261719 57.648438 6.261719 C 55.964844 6.261719 54.394531 6.886719 53.15625 8.015625 C 51.328125 5.234375 48.289063 3.585938 44.949219 3.585938 L 44.628906 3.585938 L 44.628906 31.394531 L 44.960938 31.382813 C 46.023438 31.347656 47.097656 31.273438 48.15625 31.164063 L 48.445313 31.132813 C 48.445313 31.132813 48.445313 9.667969 48.445313 8.53125 C 50.015625 9.65625 50.980469 11.476563 50.980469 13.429688 L 50.980469 30.78125 L 51.355469 30.714844 C 52.421875 30.527344 53.496094 30.296875 54.554688 30.03125 L 54.792969 29.96875 L 54.792969 12.929688 C 54.792969 11.464844 55.90625 10.269531 57.328125 10.109375 C 57.328125 10.785156 57.328125 29.238281 57.328125 29.238281 L 57.75 29.097656 C 58.828125 28.742188 59.902344 28.339844 60.945313 27.90625 L 61.144531 27.824219 L 61.144531 7.246094 L 60.980469 7.15625 "/>
</g>
</svg>
